<svg xmlns="http://www.w3.org/2000/svg">
<symbol id="icon-basket" viewBox="0 0 32 32">
<path d="M0 14v-3h3.75l7.531-7.532c-0.050-0.149-0.093-0.301-0.093-0.468 0-0.829 0.671-1.5 1.5-1.5 0.828 0 1.5 0.671 1.5 1.5s-0.672 1.5-1.5 1.5c-0.111 0-0.209-0.041-0.312-0.063l-6.564 6.563h19.354l-6.525-6.579c-0.129 0.036-0.252 0.079-0.391 0.079-0.828 0-1.5-0.672-1.5-1.5s0.672-1.5 1.5-1.5 1.5 0.671 1.5 1.5c0 0.153-0.045 0.293-0.088 0.433l7.567 7.567h3.771v3h-31zM24.869 28.902c-0.293 1.172-1.105 1.107-1.105 1.107l-16.595 0.032c-0.846 0-1.073-1.072-1.073-1.072l-4.387-13.955 27.574-0.026-4.414 13.914zM9.999 17h-1v5h1v-5zM9.999 23h-1v5h1v-5zM11.999 17h-0.999v5h0.999v-5zM11.999 23h-0.999v5h0.999v-5zM13.999 17h-1v5h1v-5zM13.999 23h-1v5h1v-5zM16 17h-1v5h1v-5zM16 23h-1v5h1v-5zM18 17h-1v5h1v-5zM18 23h-1v5h1v-5zM20 17h-1v5h1v-5zM20 23h-1v5h1v-5zM22 17h-1v5h1v-5zM22 23h-1v5h1v-5z"></path>
</symbol>

<symbol id="icon-facebook2" viewBox="0 0 32 32">
<path d="M29 0h-26c-1.65 0-3 1.35-3 3v26c0 1.65 1.35 3 3 3h13v-14h-4v-4h4v-2c0-3.306 2.694-6 6-6h4v4h-4c-1.1 0-2 0.9-2 2v2h6l-1 4h-5v14h9c1.65 0 3-1.35 3-3v-26c0-1.65-1.35-3-3-3z"></path>
</symbol>

<symbol id="icon-instagram" viewBox="0 0 32 32">
<path d="M16 2.881c4.275 0 4.781 0.019 6.462 0.094 1.563 0.069 2.406 0.331 2.969 0.55 0.744 0.288 1.281 0.638 1.837 1.194 0.563 0.563 0.906 1.094 1.2 1.838 0.219 0.563 0.481 1.412 0.55 2.969 0.075 1.688 0.094 2.194 0.094 6.463s-0.019 4.781-0.094 6.463c-0.069 1.563-0.331 2.406-0.55 2.969-0.288 0.744-0.637 1.281-1.194 1.837-0.563 0.563-1.094 0.906-1.837 1.2-0.563 0.219-1.413 0.481-2.969 0.55-1.688 0.075-2.194 0.094-6.463 0.094s-4.781-0.019-6.463-0.094c-1.563-0.069-2.406-0.331-2.969-0.55-0.744-0.288-1.281-0.637-1.838-1.194-0.563-0.563-0.906-1.094-1.2-1.837-0.219-0.563-0.481-1.413-0.55-2.969-0.075-1.688-0.094-2.194-0.094-6.463s0.019-4.781 0.094-6.463c0.069-1.563 0.331-2.406 0.55-2.969 0.288-0.744 0.638-1.281 1.194-1.838 0.563-0.563 1.094-0.906 1.838-1.2 0.563-0.219 1.412-0.481 2.969-0.55 1.681-0.075 2.188-0.094 6.463-0.094zM16 0c-4.344 0-4.887 0.019-6.594 0.094-1.7 0.075-2.869 0.35-3.881 0.744-1.056 0.412-1.95 0.956-2.837 1.85-0.894 0.888-1.438 1.781-1.85 2.831-0.394 1.019-0.669 2.181-0.744 3.881-0.075 1.713-0.094 2.256-0.094 6.6s0.019 4.887 0.094 6.594c0.075 1.7 0.35 2.869 0.744 3.881 0.413 1.056 0.956 1.95 1.85 2.837 0.887 0.887 1.781 1.438 2.831 1.844 1.019 0.394 2.181 0.669 3.881 0.744 1.706 0.075 2.25 0.094 6.594 0.094s4.888-0.019 6.594-0.094c1.7-0.075 2.869-0.35 3.881-0.744 1.050-0.406 1.944-0.956 2.831-1.844s1.438-1.781 1.844-2.831c0.394-1.019 0.669-2.181 0.744-3.881 0.075-1.706 0.094-2.25 0.094-6.594s-0.019-4.887-0.094-6.594c-0.075-1.7-0.35-2.869-0.744-3.881-0.394-1.063-0.938-1.956-1.831-2.844-0.887-0.887-1.781-1.438-2.831-1.844-1.019-0.394-2.181-0.669-3.881-0.744-1.712-0.081-2.256-0.1-6.6-0.1v0z"></path>
<path d="M16 7.781c-4.537 0-8.219 3.681-8.219 8.219s3.681 8.219 8.219 8.219 8.219-3.681 8.219-8.219c0-4.537-3.681-8.219-8.219-8.219zM16 21.331c-2.944 0-5.331-2.387-5.331-5.331s2.387-5.331 5.331-5.331c2.944 0 5.331 2.387 5.331 5.331s-2.387 5.331-5.331 5.331z"></path>
<path d="M26.462 7.456c0 1.060-0.859 1.919-1.919 1.919s-1.919-0.859-1.919-1.919c0-1.060 0.859-1.919 1.919-1.919s1.919 0.859 1.919 1.919z"></path>
</symbol>

<symbol id="icon-telegram" viewBox="0 0 32 32">
<path d="M16 0c-8.838 0-16 7.162-16 16s7.162 16 16 16 16-7.163 16-16-7.163-16-16-16zM23.863 10.969l-2.625 12.369c-0.181 0.881-0.712 1.087-1.45 0.681l-4-2.956-1.919 1.869c-0.225 0.219-0.4 0.4-0.8 0.4-0.519 0-0.431-0.194-0.606-0.688l-1.363-4.475-3.956-1.231c-0.856-0.262-0.862-0.85 0.194-1.269l15.412-5.95c0.7-0.319 1.381 0.169 1.113 1.25z"></path>
</symbol>

<symbol id="icon-youtube" viewBox="0 0 32 32">
<path d="M31.681 9.6c0 0-0.313-2.206-1.275-3.175-1.219-1.275-2.581-1.281-3.206-1.356-4.475-0.325-11.194-0.325-11.194-0.325h-0.012c0 0-6.719 0-11.194 0.325-0.625 0.075-1.987 0.081-3.206 1.356-0.963 0.969-1.269 3.175-1.269 3.175s-0.319 2.588-0.319 5.181v2.425c0 2.587 0.319 5.181 0.319 5.181s0.313 2.206 1.269 3.175c1.219 1.275 2.819 1.231 3.531 1.369 2.563 0.244 10.881 0.319 10.881 0.319s6.725-0.012 11.2-0.331c0.625-0.075 1.988-0.081 3.206-1.356 0.962-0.969 1.275-3.175 1.275-3.175s0.319-2.587 0.319-5.181v-2.425c-0.006-2.588-0.325-5.181-0.325-5.181zM12.694 20.15v-8.994l8.644 4.513-8.644 4.481z"></path>
</symbol>

<symbol id="icon-phone" viewBox="0 0 32 32">
<path d="M22 20c-2 2-2 4-4 4s-4-2-6-4-4-4-4-6 2-2 4-4-4-8-6-8-6 6-6 6c0 4 4.109 12.109 8 16s12 8 16 8c0 0 6-4 6-6s-6-8-8-6z"></path>
</symbol>

<symbol id="icon-circle-right" viewBox="0 0 32 32">
<path d="M16 0c-8.837 0-16 7.163-16 16s7.163 16 16 16 16-7.163 16-16-7.163-16-16-16zM16 29c-7.18 0-13-5.82-13-13s5.82-13 13-13 13 5.82 13 13-5.82 13-13 13z"></path>
<path d="M11.086 22.086l2.829 2.829 8.914-8.914-8.914-8.914-2.828 2.828 6.086 6.086z"></path>
</symbol>

<symbol id="icon-circle-left" viewBox="0 0 32 32">
<path d="M16 32c8.837 0 16-7.163 16-16s-7.163-16-16-16-16 7.163-16 16 7.163 16 16 16zM16 3c7.18 0 13 5.82 13 13s-5.82 13-13 13-13-5.82-13-13 5.82-13 13-13z"></path>
<path d="M20.914 9.914l-2.829-2.829-8.914 8.914 8.914 8.914 2.828-2.828-6.086-6.086z"></path>
</symbol>

<symbol id="icon-menu" viewBox="0 0 32 32">
<path d="M2 6h28v6h-28zM2 14h28v6h-28zM2 22h28v6h-28z"></path>
</symbol>

</svg>